<svg width="157" height="156" viewBox="0 0 157 156" fill="none" xmlns="http://www.w3.org/2000/svg">
<path d="M61.2049 8.73296C58.0839 9.34702 53.8268 10.6746 49.234 13.0721C49.2675 13.0413 49.3 13.0104 49.3308 12.9796L54.1173 8.19312H61.2049V8.73296Z" stroke="#FCE6B9" stroke-width="6"/>
<path d="M96.4749 9.15402C99.3619 9.75087 103.226 10.9956 107.404 13.1919L103.029 8.66504H96.4749V9.15402Z" stroke="#FCE6B9" stroke-width="6"/>
<path d="M83.3934 3V13.5234H72.3979V3.77677V3H83.3934ZM84.5793 3.00311C84.5793 3.00313 84.5786 3.00304 84.5771 3.00283L84.5793 3.00311Z" stroke="#FCE6B9" stroke-width="6"/>
<path d="M30.9911 55.8748V66.3981H19.9956V56.6515V55.8748H30.9911ZM32.177 55.8779C32.177 55.8779 32.1762 55.8778 32.1747 55.8776L32.177 55.8779Z" stroke="#FCE6B9" stroke-width="6"/>
<path d="M136.741 55.8748V66.3981H125.745V56.6515V55.8748H136.741ZM137.926 55.8779C137.926 55.8779 137.926 55.8778 137.924 55.8776L137.926 55.8779Z" stroke="#FCE6B9" stroke-width="6"/>
<path d="M68.666 33.2141H72.5354V84.6127C71.606 85.2167 70.6235 86.0186 69.7423 87.0203C68.2016 88.7716 66.8703 91.2588 66.8703 94.4191C66.8703 101.963 72.6929 105.917 77.8959 105.917C80.2166 105.917 83.0717 105.346 85.4145 103.505C87.8819 101.567 89.3937 98.522 89.3937 94.4191C89.3937 89.0305 86.3968 85.8993 83.7285 84.4097V33.2141H86.8626C86.9409 33.3402 87.0274 33.4819 87.1228 33.6409C87.1223 33.64 87.122 33.6396 87.122 33.6396C87.1218 33.6397 87.1449 33.6804 87.2009 33.7872C87.2613 33.9027 87.3416 34.0596 87.4427 34.2604C87.6443 34.6611 87.9138 35.207 88.246 35.8877C88.9098 37.2475 89.8102 39.1167 90.893 41.379C93.0578 45.9021 95.9412 51.9755 99.0958 58.6427C105.283 71.7192 112.507 87.0667 117.385 97.4491V98.0471L103.306 130.603H52.9576L38.8794 98.0471V97.4414L68.666 33.2141ZM68.8678 32.9868C68.8678 32.9869 68.8666 32.9878 68.8642 32.9896C68.8666 32.9877 68.8678 32.9868 68.8678 32.9868Z" stroke="#FCE6B9" stroke-width="6"/>
<path d="M108.415 152.32H47.377V142.268H108.415V152.32ZM109.725 142.278C109.724 142.278 109.72 142.278 109.712 142.276C109.721 142.277 109.725 142.278 109.725 142.278Z" stroke="#FCE6B9" stroke-width="6"/>
<circle cx="148.238" cy="8.49773" r="5.49773" stroke="#FCE6B9" stroke-width="6"/>
<circle cx="8.49773" cy="8.49773" r="5.49773" stroke="#FCE6B9" stroke-width="6"/>
</svg>
