<svg width="177" height="176" viewBox="0 0 177 176" fill="none" xmlns="http://www.w3.org/2000/svg">
<path fill-rule="evenodd" clip-rule="evenodd" d="M58.7209 39.5C59.3875 36.8333 62.2209 31.3 68.2209 30.5H108.721C111.388 31 117.021 33.5 118.221 39.5H131.221V15H115.221C114.721 17.3333 112.121 22.5 105.721 24.5H70.7209C68.0542 23.5 62.3209 19.8 60.7209 13C60.7209 5.4 67.3875 1.16667 70.7209 0H106.721C109.554 1 115.221 4.2 115.221 9H131.221V2C131.388 1.33333 132.121 0 133.721 0H146.721C147.388 0.166667 148.821 0.8 149.221 2V9H155.221C159.221 10 167.221 14.5 167.221 24.5V40.5C170.221 41.3333 176.221 45 176.221 53V135C176.221 139.667 173.121 149 160.721 149H118.721C118.388 152 116.321 158 110.721 158H105.721C104.888 160 102.121 164 97.7209 164V174C97.5542 174.667 96.7209 176 94.7209 176C92.7209 176 91.5542 174.667 91.2209 174V164H85.2209V174C85.2209 174.667 84.6209 176 82.2209 176C79.8209 176 79.2209 174.667 79.2209 174V164C76.5542 163.833 71.1209 162.4 70.7209 158H65.2209C62.8875 157 58.1209 153.8 57.7209 149H13.2209C9.05419 148.167 0.620861 144 0.220861 134C-0.179139 124 0.054194 75.1667 0.220861 52C1.22091 47.8333 5.22099 39.5 13.2209 39.5H23.2207H58.7209ZM111.721 39.5H65.2207C66.0207 37.1 68.2207 36.5 69.2207 36.5H106.721C110.721 36.5 111.721 38.5 111.721 39.5ZM104.721 6H71.7207C70.2207 6.66667 67.2207 8.8 67.2207 12C67.2207 15.2 69.5541 17.3333 70.7209 18H73.2207V14C73.054 13.3333 73.4207 12 76.2207 12C79.0207 12 79.3874 13.3333 79.2207 14V18H85.7207V14C85.554 13.3333 85.8207 12 88.2207 12C90.6207 12 91.2207 13.3333 91.2207 14V18H97.7207V14C97.7207 13.3333 98.3207 12 100.721 12C103.121 12 103.721 13.6667 103.721 14.5V18H105.721C107.054 17.5 109.721 15.6 109.721 12C109.721 8.4 106.387 6.5 104.721 6ZM154.221 15H149.221V39.5H161.221V22.5C161.221 17.7 156.554 15.5 154.221 15ZM161.221 101.5V87C161.221 86.3333 161.821 85 164.221 85C166.621 85 167.554 86.3333 167.721 87V101.5C167.387 102.167 166.221 103.5 164.221 103.5C162.221 103.5 161.387 102.167 161.221 101.5ZM112.721 149H64.2207C64.2207 150.2 65.554 151.5 66.2207 152H73.2207C74.8207 152 75.8874 153 76.2207 153.5V156C76.2207 157.2 77.554 157.833 78.2207 158H98.7207C99.9207 158 100.554 156.667 100.721 156V153.5C101.121 152.3 102.221 152 102.721 152H109.721C112.521 152 112.887 150 112.721 149ZM164.221 82L162.221 81L161.221 79L162.221 77L164.221 76L166.221 77L167.221 79L166.221 81L164.221 82ZM39.7207 143H30.7207V45H152.221V143H112.721V124.5C112.721 110.1 100.387 104.5 94.2207 103.5C87.7207 103.333 71.5207 103.1 58.7207 103.5C45.9207 103.9 40.7207 116 39.7207 122V143ZM17.2207 100H15.2207H13.2207L11.7207 99L10.2207 97L9.2207 94L9.7207 91.5L10.7207 90L11.7207 89L13.2207 88H15.2207H17.2207L19.2207 89L20.2207 90L20.7207 91L21.2207 92.5V94V95.5L20.7207 97L20.2207 98L19.2207 99L17.2207 100Z" fill="#FCE6B9"/>
<path d="M76.2207 57.5L71.2207 58L66.7207 59.5L63.2207 61.5L60.2207 64L57.7207 67.5L56.2207 71L54.7207 75V79V83L56.2207 87L57.7207 90.5L60.2207 93.5L63.2207 96.5L67.2207 98.5L71.2207 100L76.2207 100.5L80.7207 100L84.7207 98.5L88.7207 96.5L91.7207 93.5L94.2207 90.5L96.2207 87L97.2207 83L97.7207 79V75L96.2207 71L94.2207 67.5L91.7207 64.5L88.7207 61.5L85.2207 59.5L80.7207 58L76.2207 57.5Z" fill="#FCE6B9"/>
<path d="M124.721 60C125.887 59.1667 129.121 57.5 132.721 57.5C137.221 57.5 143.721 62 143.221 69.5C142.721 77 127.221 90 126.721 90.5C126.221 91 124.221 92 122.721 90.5C121.221 89 107.721 77.5 106.721 69.5C107.521 61.9 112.721 58.3333 115.221 57.5C117.054 57.3333 121.521 57.6 124.721 60Z" fill="#FCE6B9"/>
</svg>
