<svg width="165" height="154" viewBox="0 0 165 154" fill="none" xmlns="http://www.w3.org/2000/svg">
<path d="M115.182 49.9683H84.6348C82.4534 50.9305 82.5917 53.5896 84.6348 54.718H115.182C117.442 53.7403 117.457 50.8886 115.182 49.9683Z" fill="#FCE6B9"/>
<path d="M66.2011 126.49H22.487C20.3055 127.452 20.4439 130.111 22.487 131.239H66.2011C68.4613 130.262 68.4764 127.41 66.2011 126.49Z" fill="#FCE6B9"/>
<path d="M41.4473 16.7213H36.7073C34.0739 16.7213 34.0739 21.9986 36.7073 21.9986H41.4473C44.6074 21.9986 44.6074 16.7213 41.4473 16.7213Z" fill="#FCE6B9"/>
<path d="M57.2476 16.7213H52.5075C49.8742 16.7213 49.8742 21.9986 52.5075 21.9986H57.2476C60.4077 21.9986 60.4077 16.7213 57.2476 16.7213Z" fill="#FCE6B9"/>
<path d="M75.1546 107.492H22.487C20.3055 108.454 20.4439 111.113 22.487 112.241H75.1546C77.4148 111.264 77.4299 108.412 75.1546 107.492Z" fill="#FCE6B9"/>
<path d="M83.0547 88.4932H23.0137C20.8323 89.4554 20.9706 92.1145 23.0137 93.2428H83.0547C85.3149 92.2652 85.33 89.4135 83.0547 88.4932Z" fill="#FCE6B9"/>
<path d="M20.907 51.5516C21.136 50.4728 21.4443 50.0075 23.0137 49.9683H69.3612C71.4679 49.9683 71.4679 49.9683 71.4679 51.5516V72.1332C71.5022 73.746 71.2449 74.3933 69.3612 74.2441H46.1874H23.0137C21.2633 74.3523 20.9958 73.8586 20.907 72.6609V51.5516Z" fill="#FCE6B9"/>
<path d="M84.6348 69.4945H108.335C110.61 70.4148 110.595 73.2665 108.335 74.2441H84.6348C82.5917 73.1158 82.4534 70.4567 84.6348 69.4945Z" fill="#FCE6B9"/>
<path d="M21.4337 16.7213H26.1737C29.3338 16.7213 29.3338 21.9986 26.1737 21.9986H21.4337C18.8003 21.9986 18.8003 16.7213 21.4337 16.7213Z" fill="#FCE6B9"/>
<path d="M82.5281 131.767C87.2682 130.184 104.648 123.851 104.648 123.851L106.755 121.74L103.068 118.046L93.5883 108.547L89.882 104.833L86.7415 108.019C86.7415 108.019 80.9481 124.906 79.368 129.128C77.788 133.351 77.788 133.351 82.5281 131.767Z" fill="#FCE6B9"/>
<path d="M144.149 50.4961C142.061 51.4074 134.669 59.9953 134.669 59.9953L132.451 61.9953L136.249 65.8006L145.729 75.8276L149.369 79.4749C155.02 73.9 160.3 68.5564 161.003 67.3836C162.583 64.7449 162.056 63.6897 161.003 61.0508C159.949 58.4118 153.632 51.4299 151.523 50.4961C149.413 49.5622 146.238 49.5847 144.149 50.4961Z" fill="#FCE6B9"/>
<path d="M134.669 59.9953C134.669 59.9953 142.061 51.4074 144.149 50.4961C146.238 49.5847 149.413 49.5622 151.523 50.4961C153.632 51.4299 159.949 58.4118 161.003 61.0508C162.056 63.6897 162.583 64.7449 161.003 67.3836C160.3 68.5565 155.02 73.9 149.369 79.4749M134.669 59.9953L132.451 61.9952M134.669 59.9953C134.669 59.9953 134.669 48.2071 134.669 36.2473M134.669 93.7703C134.669 93.7703 134.669 135.989 134.669 141.266C134.669 146.544 132.036 150.238 126.769 150.766C121.502 151.293 18.8003 150.766 12.4802 150.766C6.16006 150.766 3.52668 147.599 3.52668 142.322C3.52668 138.442 3.2421 72.9714 3.09131 36.2473M134.669 93.7703L129.402 99.0476L106.755 121.74M134.669 93.7703C134.669 93.7703 142.308 86.442 149.369 79.4749M84.6348 69.4945C93.8904 69.4945 99.0796 69.4945 108.335 69.4945M84.6348 69.4945C82.4534 70.4567 82.5917 73.1158 84.6348 74.2441M84.6348 69.4945H108.335M108.335 69.4945C110.61 70.4148 110.595 73.2665 108.335 74.2441M108.335 74.2441C99.0796 74.2441 93.8904 74.2441 84.6348 74.2441M108.335 74.2441H84.6348M21.4337 16.7213C24.067 16.7213 23.0137 16.7213 26.1737 16.7213M21.4337 16.7213C18.8003 16.7213 18.8003 21.9986 21.4337 21.9986M21.4337 16.7213H26.1737M26.1737 16.7213C29.3338 16.7213 29.3338 21.9986 26.1737 21.9986M26.1737 21.9986C23.0137 21.9986 24.067 21.9986 21.4337 21.9986M26.1737 21.9986H21.4337M149.369 79.4749L145.729 75.8276L136.249 65.8006L132.451 61.9952M132.451 61.9952L129.402 64.7449L89.882 104.833M106.755 121.74L104.648 123.851C104.648 123.851 87.2682 130.184 82.5281 131.767C77.788 133.351 77.788 133.351 79.368 129.128C80.948 124.906 86.7415 108.019 86.7415 108.019L89.882 104.833M106.755 121.74L103.068 118.046L93.5883 108.547L89.882 104.833M3.09131 36.2473C3.03697 23.0112 3 13.5094 3 11.9715C3 6.1667 7.74008 3.00005 11.4268 3.00001C15.1135 2.99996 119.395 3.00011 125.189 3.00001C130.982 2.9999 134.669 6.6944 134.669 11.9715C134.669 14.4774 134.669 25.4325 134.669 36.2473M3.09131 36.2473H8.26676H129.402H134.669M84.6348 49.9683H115.182C117.457 50.8886 117.442 53.7403 115.182 54.718H84.6348C82.5917 53.5896 82.4534 50.9305 84.6348 49.9683ZM22.487 126.49H66.2011C68.4764 127.41 68.4613 130.262 66.2011 131.239H22.487C20.4439 130.111 20.3056 127.452 22.487 126.49ZM20.907 51.5516C21.136 50.4728 21.4443 50.0075 23.0137 49.9683H69.3612C71.4679 49.9683 71.4679 49.9683 71.4679 51.5516V72.1332C71.5022 73.746 71.2449 74.3933 69.3612 74.2441H46.1874H23.0137C21.2633 74.3523 20.9958 73.8586 20.907 72.6609V51.5516ZM36.7073 16.7213H41.4473C44.6074 16.7213 44.6074 21.9986 41.4473 21.9986H36.7073C34.0739 21.9986 34.0739 16.7213 36.7073 16.7213ZM52.5075 16.7213H57.2476C60.4077 16.7213 60.4077 21.9986 57.2476 21.9986H52.5075C49.8742 21.9986 49.8742 16.7213 52.5075 16.7213ZM22.487 107.492H75.1546C77.4299 108.412 77.4148 111.264 75.1546 112.241H22.487C20.4439 111.113 20.3056 108.454 22.487 107.492ZM23.0137 88.4932H83.0548C85.33 89.4135 85.3149 92.2651 83.0548 93.2428H23.0137C20.9706 92.1145 20.8323 89.4554 23.0137 88.4932Z" stroke="#FCE6B9" stroke-width="5"/>
</svg>
